# xmcd
#
# Track frame offsets: 
#        150
#        18928
#        38950
#        58340
#        72858
#        87878
#        105980
#        119735
#        137700
#        153300
#
# Disc length: 2283 seconds
#
# Revision: 2
# Processed by: cddbd v1.5.2PL0 Copyright (c) Steve Scherf et al.
# Submitted via: ExactAudioCopy v0.99pb3
#
DISCID=8408e90a
DTITLE=Pino Daniele - Un Uomo In Blues
DYEAR=1900
DGENRE=
TTITLE0='o Scarrafone
TTITLE1=Un Uomo In Blues
TTITLE2=Gente Distrutta
TTITLE3=Che Soddisfazione
TTITLE4=Invece No
TTITLE5=Leave A Message
TTITLE6=Domani
TTITLE7=Femmena
TTITLE8=For Your Love
TTITLE9=Solo
EXTD=
EXTT0=
EXTT1=
EXTT2=
EXTT3=
EXTT4=
EXTT5=
EXTT6=
EXTT7=
EXTT8=
EXTT9=
PLAYORDER=
